<svg xmlns="http://www.w3.org/2000/svg" xmlns:xlink="http://www.w3.org/1999/xlink" width="100" zoomAndPan="magnify" viewBox="0 0 75 37.5" height="50" preserveAspectRatio="xMidYMid meet" version="1.0"><defs><g/><clipPath id="7a6d549739"><path d="M 2 21 L 16 21 L 16 35 L 2 35 Z M 2 21 " clip-rule="nonzero"/></clipPath><clipPath id="89d5dec6db"><path d="M 0.726562 30.632812 L 11.835938 19.523438 L 17.179688 24.867188 L 6.070312 35.980469 Z M 0.726562 30.632812 " clip-rule="nonzero"/></clipPath><clipPath id="0e0ecb4129"><path d="M 3.398438 27.960938 L 9.152344 22.203125 C 9.863281 21.492188 10.824219 21.097656 11.828125 21.097656 C 12.828125 21.097656 13.792969 21.492188 14.5 22.203125 C 15.210938 22.910156 15.609375 23.875 15.609375 24.875 C 15.609375 25.878906 15.210938 26.839844 14.5 27.550781 L 8.742188 33.304688 C 8.035156 34.015625 7.074219 34.414062 6.070312 34.414062 C 5.066406 34.414062 4.105469 34.015625 3.398438 33.304688 C 2.6875 32.597656 2.289062 31.636719 2.289062 30.632812 C 2.289062 29.628906 2.6875 28.667969 3.398438 27.960938 Z M 3.398438 27.960938 " clip-rule="nonzero"/></clipPath><clipPath id="7382ab04e1"><path d="M 2 2 L 16 2 L 16 16 L 2 16 Z M 2 2 " clip-rule="nonzero"/></clipPath><clipPath id="1bf50fefe2"><path d="M 5.605469 1.027344 L 17.179688 11.652344 L 12.066406 17.222656 L 0.492188 6.597656 Z M 5.605469 1.027344 " clip-rule="nonzero"/></clipPath><clipPath id="92014fcf88"><path d="M 8.390625 3.585938 L 14.386719 9.089844 C 15.125 9.769531 15.566406 10.710938 15.605469 11.714844 C 15.648438 12.714844 15.292969 13.691406 14.613281 14.429688 C 13.9375 15.167969 12.992188 15.609375 11.992188 15.652344 C 10.988281 15.695312 10.011719 15.335938 9.273438 14.660156 L 3.277344 9.152344 C 2.539062 8.476562 2.101562 7.53125 2.058594 6.53125 C 2.015625 5.527344 2.371094 4.550781 3.050781 3.8125 C 3.726562 3.074219 4.671875 2.632812 5.671875 2.59375 C 6.675781 2.550781 7.652344 2.90625 8.390625 3.585938 Z M 8.390625 3.585938 " clip-rule="nonzero"/></clipPath><clipPath id="13e34dfeeb"><path d="M 2 8 L 16 8 L 16 22 L 2 22 Z M 2 8 " clip-rule="nonzero"/></clipPath><clipPath id="9a4172bb92"><path d="M 0.726562 17.710938 L 11.835938 6.601562 L 17.179688 11.945312 L 6.070312 23.054688 Z M 0.726562 17.710938 " clip-rule="nonzero"/></clipPath><clipPath id="8c6785eaaf"><path d="M 3.398438 15.039062 L 9.152344 9.28125 C 9.863281 8.570312 10.824219 8.171875 11.828125 8.171875 C 12.828125 8.171875 13.792969 8.570312 14.5 9.28125 C 15.210938 9.988281 15.609375 10.953125 15.609375 11.953125 C 15.609375 12.957031 15.210938 13.917969 14.5 14.628906 L 8.742188 20.382812 C 8.035156 21.09375 7.074219 21.492188 6.070312 21.492188 C 5.066406 21.492188 4.105469 21.09375 3.398438 20.382812 C 2.6875 19.675781 2.289062 18.710938 2.289062 17.710938 C 2.289062 16.707031 2.6875 15.746094 3.398438 15.039062 Z M 3.398438 15.039062 " clip-rule="nonzero"/></clipPath><clipPath id="10f2f49890"><path d="M 14.007812 15.019531 L 20.710938 15.019531 L 20.710938 21.71875 L 14.007812 21.71875 Z M 14.007812 15.019531 " clip-rule="nonzero"/></clipPath><clipPath id="d41aa048d0"><path d="M 17.359375 15.019531 C 15.507812 15.019531 14.007812 16.519531 14.007812 18.371094 C 14.007812 20.21875 15.507812 21.71875 17.359375 21.71875 C 19.210938 21.71875 20.710938 20.21875 20.710938 18.371094 C 20.710938 16.519531 19.210938 15.019531 17.359375 15.019531 Z M 17.359375 15.019531 " clip-rule="nonzero"/></clipPath></defs><g clip-path="url(#7a6d549739)"><g clip-path="url(#89d5dec6db)"><g clip-path="url(#0e0ecb4129)"><path fill="#901dff" d="M 0.726562 30.632812 L 11.835938 19.523438 L 17.179688 24.867188 L 6.070312 35.980469 Z M 0.726562 30.632812 " fill-opacity="1" fill-rule="nonzero"/></g></g></g><g clip-path="url(#7382ab04e1)"><g clip-path="url(#1bf50fefe2)"><g clip-path="url(#92014fcf88)"><path fill="#5f00cd" d="M 5.605469 1.027344 L 17.179688 11.652344 L 12.066406 17.222656 L 0.492188 6.597656 Z M 5.605469 1.027344 " fill-opacity="1" fill-rule="nonzero"/></g></g></g><g clip-path="url(#13e34dfeeb)"><g clip-path="url(#9a4172bb92)"><g clip-path="url(#8c6785eaaf)"><path fill="#901dff" d="M 0.726562 17.710938 L 11.835938 6.601562 L 17.179688 11.945312 L 6.070312 23.054688 Z M 0.726562 17.710938 " fill-opacity="1" fill-rule="nonzero"/></g></g></g><g clip-path="url(#10f2f49890)"><g clip-path="url(#d41aa048d0)"><path fill="#5f00cd" d="M 14.007812 15.019531 L 20.710938 15.019531 L 20.710938 21.71875 L 14.007812 21.71875 Z M 14.007812 15.019531 " fill-opacity="1" fill-rule="nonzero"/></g></g><g fill="#ffffff" fill-opacity="1"><g transform="translate(33.019175, 20.830835)"><g><path d="M 1.71875 -3.96875 C 2.125 -3.96875 2.476562 -3.867188 2.78125 -3.671875 C 3.09375 -3.472656 3.332031 -3.171875 3.5 -2.765625 C 3.675781 -2.367188 3.765625 -1.878906 3.765625 -1.296875 L 3.765625 0 L 0.296875 0 L 0.296875 -0.921875 L 2.734375 -0.921875 L 2.734375 -1.203125 C 2.734375 -1.859375 2.609375 -2.328125 2.359375 -2.609375 C 2.117188 -2.890625 1.828125 -3.03125 1.484375 -3.03125 L 0.71875 -3.03125 L 0.640625 -3.828125 C 0.796875 -3.859375 0.972656 -3.890625 1.171875 -3.921875 C 1.367188 -3.953125 1.550781 -3.96875 1.71875 -3.96875 Z M 1.71875 -3.96875 "/></g></g></g><g fill="#ffffff" fill-opacity="1"><g transform="translate(37.009292, 20.830835)"><g><path d="M 4.75 0 L 3.796875 0 C 3.679688 1.257812 3.148438 1.890625 2.203125 1.890625 C 1.929688 1.890625 1.492188 1.835938 0.890625 1.734375 L 0.890625 0.8125 C 1.492188 0.90625 1.90625 0.953125 2.125 0.953125 C 2.28125 0.953125 2.40625 0.925781 2.5 0.875 C 2.59375 0.820312 2.660156 0.722656 2.703125 0.578125 C 2.742188 0.441406 2.765625 0.25 2.765625 0 L 1.890625 0 C 0.835938 0 0.3125 -0.59375 0.3125 -1.78125 C 0.3125 -2.382812 0.378906 -2.84375 0.515625 -3.15625 C 0.648438 -3.46875 0.835938 -3.675781 1.078125 -3.78125 C 1.328125 -3.894531 1.648438 -3.953125 2.046875 -3.953125 C 2.335938 -3.953125 2.648438 -3.929688 2.984375 -3.890625 C 3.316406 -3.847656 3.59375 -3.804688 3.8125 -3.765625 L 3.8125 -0.921875 L 4.75 -0.921875 Z M 1.328125 -1.84375 C 1.328125 -1.582031 1.378906 -1.363281 1.484375 -1.1875 C 1.597656 -1.007812 1.828125 -0.921875 2.171875 -0.921875 L 2.796875 -0.921875 L 2.796875 -2.984375 C 2.597656 -3.003906 2.410156 -3.015625 2.234375 -3.015625 C 2.023438 -3.015625 1.859375 -2.984375 1.734375 -2.921875 C 1.609375 -2.867188 1.507812 -2.757812 1.4375 -2.59375 C 1.363281 -2.425781 1.328125 -2.175781 1.328125 -1.84375 Z M 1.328125 -1.84375 "/></g></g></g><g fill="#ffffff" fill-opacity="1"><g transform="translate(41.759393, 20.830835)"><g><path d="M 2.921875 -3.6875 C 3.328125 -3.6875 3.632812 -3.578125 3.84375 -3.359375 C 4.0625 -3.140625 4.207031 -2.890625 4.28125 -2.609375 C 4.351562 -2.335938 4.390625 -2.085938 4.390625 -1.859375 L 4.390625 0 L 0 0 L 0 -0.921875 L 3.375 -0.921875 L 3.375 -1.859375 C 3.375 -2.117188 3.3125 -2.332031 3.1875 -2.5 C 3.0625 -2.664062 2.914062 -2.75 2.75 -2.75 L 0.71875 -2.75 L 0.1875 -3.46875 L 0.640625 -4.34375 C 0.742188 -4.550781 0.878906 -4.769531 1.046875 -5 C 1.222656 -5.226562 1.390625 -5.425781 1.546875 -5.59375 L 2.296875 -5.171875 C 2.023438 -4.796875 1.773438 -4.390625 1.546875 -3.953125 L 1.40625 -3.6875 Z M 2.921875 -3.6875 "/></g></g></g><g fill="#ffffff" fill-opacity="1"><g transform="translate(46.615935, 20.830835)"><g/></g></g><g fill="#ffffff" fill-opacity="1"><g transform="translate(48.28798, 20.830835)"><g><path d="M 5.390625 -0.921875 L 5.390625 0 L 4.96875 0 C 4.882812 0 4.800781 -0.03125 4.71875 -0.09375 C 4.644531 -0.15625 4.59375 -0.234375 4.5625 -0.328125 L 4.5625 0 L 2.09375 0 C 1.875 0 1.675781 0.0703125 1.5 0.21875 C 1.332031 0.363281 1.25 0.640625 1.25 1.046875 C 1.25 1.359375 1.316406 1.828125 1.453125 2.453125 L 0.578125 2.484375 C 0.515625 2.179688 0.453125 1.847656 0.390625 1.484375 C 0.328125 1.117188 0.296875 0.816406 0.296875 0.578125 C 0.296875 0.222656 0.359375 -0.0625 0.484375 -0.28125 C 0.617188 -0.5 0.789062 -0.664062 1 -0.78125 C 0.90625 -1.164062 0.859375 -1.535156 0.859375 -1.890625 C 0.859375 -2.171875 0.882812 -2.46875 0.9375 -2.78125 C 1 -3.101562 1.0625 -3.378906 1.125 -3.609375 C 1.269531 -3.679688 1.472656 -3.738281 1.734375 -3.78125 C 2.003906 -3.832031 2.304688 -3.859375 2.640625 -3.859375 C 3.160156 -3.859375 3.5625 -3.78125 3.84375 -3.625 C 4.125 -3.476562 4.3125 -3.265625 4.40625 -2.984375 C 4.507812 -2.710938 4.5625 -2.347656 4.5625 -1.890625 L 4.5625 -1.25 C 4.59375 -1.144531 4.644531 -1.0625 4.71875 -1 C 4.800781 -0.945312 4.882812 -0.921875 4.96875 -0.921875 Z M 3.53125 -0.921875 L 3.53125 -1.921875 C 3.53125 -2.273438 3.460938 -2.535156 3.328125 -2.703125 C 3.191406 -2.867188 2.925781 -2.953125 2.53125 -2.953125 C 2.332031 -2.953125 2.140625 -2.929688 1.953125 -2.890625 C 1.878906 -2.515625 1.84375 -2.179688 1.84375 -1.890625 C 1.84375 -1.710938 1.851562 -1.535156 1.875 -1.359375 C 1.894531 -1.179688 1.921875 -1.035156 1.953125 -0.921875 Z M 3.53125 -0.921875 "/></g></g></g><g fill="#ffffff" fill-opacity="1"><g transform="translate(53.676493, 20.830835)"><g><path d="M 1.953125 -5.3125 L 1.953125 0 L 0 0 L 0 -0.921875 L 0.9375 -0.921875 L 0.9375 -5.3125 Z M 1.953125 -5.3125 "/></g></g></g><g fill="#ffffff" fill-opacity="1"><g transform="translate(56.237761, 20.830835)"><g><path d="M 2.375 -0.921875 L 2.375 0 L 0.609375 0 L 0.609375 -5.3125 L 1.625 -5.3125 L 1.625 -0.921875 Z M 2.375 -0.921875 "/></g></g></g><g fill="#ffffff" fill-opacity="1"><g transform="translate(58.609014, 20.830835)"><g><path d="M 4.15625 -0.921875 L 4.15625 0 L 0 0 L 0 -0.921875 L 1.078125 -0.921875 C 0.898438 -1.222656 0.8125 -1.585938 0.8125 -2.015625 C 0.8125 -2.460938 0.90625 -2.828125 1.09375 -3.109375 C 1.289062 -3.390625 1.523438 -3.585938 1.796875 -3.703125 C 2.078125 -3.828125 2.359375 -3.890625 2.640625 -3.890625 C 2.828125 -3.890625 3.039062 -3.863281 3.28125 -3.8125 C 3.53125 -3.757812 3.742188 -3.6875 3.921875 -3.59375 L 3.875 -2.640625 C 3.71875 -2.710938 3.53125 -2.785156 3.3125 -2.859375 C 3.09375 -2.929688 2.894531 -2.96875 2.71875 -2.96875 C 2.488281 -2.96875 2.285156 -2.890625 2.109375 -2.734375 C 1.929688 -2.578125 1.84375 -2.320312 1.84375 -1.96875 C 1.84375 -1.738281 1.878906 -1.535156 1.953125 -1.359375 C 2.035156 -1.179688 2.128906 -1.035156 2.234375 -0.921875 Z M 4.15625 -0.921875 "/></g></g></g></svg>